<svg  width="224" height="23" viewBox="0 0 224 23" fill="none" xmlns="http://www.w3.org/2000/svg" stroke="currentColor">
<g clip-path="url(#clip0_1_7)">
<path fill-rule="evenodd" clip-rule="evenodd" d="M14.6667 4.83333H10.2222V9.2778H5.7778V13.7222H1.33333V18.1667H14.6667V4.83333Z" fill="#1C170D"/>
</g>
<path d="M33.296 19.25V5.84H35.744V11.69H41.45V5.84H43.916V19.25H41.45V13.85H35.744V19.25H33.296ZM50.6795 19.466C49.6715 19.466 48.7895 19.238 48.0335 18.782C47.2775 18.326 46.6895 17.708 46.2695 16.928C45.8495 16.148 45.6395 15.284 45.6395 14.336C45.6395 13.352 45.8495 12.482 46.2695 11.726C46.7015 10.958 47.2835 10.352 48.0155 9.908C48.7595 9.464 49.5875 9.242 50.4995 9.242C51.2675 9.242 51.9395 9.368 52.5155 9.62C53.1035 9.872 53.6015 10.22 54.0095 10.664C54.4175 11.108 54.7295 11.618 54.9455 12.194C55.1615 12.758 55.2695 13.37 55.2695 14.03C55.2695 14.198 55.2575 14.372 55.2335 14.552C55.2215 14.732 55.1915 14.888 55.1435 15.02H47.5835V13.22H53.8115L52.6955 14.066C52.8035 13.514 52.7735 13.022 52.6055 12.59C52.4495 12.158 52.1855 11.816 51.8135 11.564C51.4535 11.312 51.0155 11.186 50.4995 11.186C50.0075 11.186 49.5695 11.312 49.1855 11.564C48.8015 11.804 48.5075 12.164 48.3035 12.644C48.1115 13.112 48.0395 13.682 48.0875 14.354C48.0395 14.954 48.1175 15.488 48.3215 15.956C48.5375 16.412 48.8495 16.766 49.2575 17.018C49.6775 17.27 50.1575 17.396 50.6975 17.396C51.2375 17.396 51.6935 17.282 52.0655 17.054C52.4495 16.826 52.7495 16.52 52.9655 16.136L54.8735 17.072C54.6815 17.54 54.3815 17.954 53.9735 18.314C53.5655 18.674 53.0795 18.956 52.5155 19.16C51.9635 19.364 51.3515 19.466 50.6795 19.466ZM56.7855 19.25V9.458H58.9995V11.636L58.8195 11.312C59.0475 10.58 59.4015 10.07 59.8815 9.782C60.3735 9.494 60.9615 9.35 61.6455 9.35H62.2215V11.438H61.3755C60.7035 11.438 60.1635 11.648 59.7555 12.068C59.3475 12.476 59.1435 13.052 59.1435 13.796V19.25H56.7855ZM63.2543 19.25V9.458H65.4683V11.636L65.2883 11.312C65.5163 10.58 65.8703 10.07 66.3503 9.782C66.8423 9.494 67.4303 9.35 68.1143 9.35H68.6903V11.438H67.8443C67.1723 11.438 66.6323 11.648 66.2243 12.068C65.8163 12.476 65.6123 13.052 65.6123 13.796V19.25H63.2543ZM72.693 19.466C72.009 19.466 71.415 19.352 70.911 19.124C70.407 18.896 70.017 18.572 69.741 18.152C69.465 17.72 69.327 17.222 69.327 16.658C69.327 16.118 69.447 15.638 69.687 15.218C69.927 14.786 70.299 14.426 70.803 14.138C71.307 13.85 71.943 13.646 72.711 13.526L75.915 13.004V14.804L73.161 15.272C72.693 15.356 72.345 15.506 72.117 15.722C71.889 15.938 71.775 16.22 71.775 16.568C71.775 16.904 71.901 17.174 72.153 17.378C72.417 17.57 72.741 17.666 73.125 17.666C73.617 17.666 74.049 17.564 74.421 17.36C74.805 17.144 75.099 16.85 75.303 16.478C75.519 16.106 75.627 15.698 75.627 15.254V12.734C75.627 12.314 75.459 11.966 75.123 11.69C74.799 11.402 74.367 11.258 73.827 11.258C73.323 11.258 72.873 11.396 72.477 11.672C72.093 11.936 71.811 12.29 71.631 12.734L69.705 11.798C69.897 11.282 70.197 10.838 70.605 10.466C71.025 10.082 71.517 9.782 72.081 9.566C72.645 9.35 73.257 9.242 73.917 9.242C74.721 9.242 75.429 9.392 76.041 9.692C76.653 9.98 77.127 10.388 77.463 10.916C77.811 11.432 77.985 12.038 77.985 12.734V19.25H75.753V17.576L76.257 17.54C76.005 17.96 75.705 18.314 75.357 18.602C75.009 18.878 74.613 19.094 74.169 19.25C73.725 19.394 73.233 19.466 72.693 19.466ZM79.8949 19.25V9.458H82.1089V11.726L81.8569 11.348C82.0369 10.64 82.3969 10.112 82.9369 9.764C83.4769 9.416 84.1129 9.242 84.8449 9.242C85.6489 9.242 86.3569 9.452 86.9689 9.872C87.5809 10.292 87.9769 10.844 88.1569 11.528L87.4909 11.582C87.7909 10.802 88.2409 10.22 88.8409 9.836C89.4409 9.44 90.1309 9.242 90.9109 9.242C91.6069 9.242 92.2249 9.398 92.7649 9.71C93.3169 10.022 93.7489 10.46 94.0609 11.024C94.3729 11.576 94.5289 12.218 94.5289 12.95V19.25H92.1709V13.508C92.1709 13.076 92.0929 12.704 91.9369 12.392C91.7809 12.08 91.5649 11.84 91.2889 11.672C91.0129 11.492 90.6769 11.402 90.2809 11.402C89.9089 11.402 89.5789 11.492 89.2909 11.672C89.0029 11.84 88.7809 12.08 88.6249 12.392C88.4689 12.704 88.3909 13.076 88.3909 13.508V19.25H86.0329V13.508C86.0329 13.076 85.9549 12.704 85.7989 12.392C85.6429 12.08 85.4209 11.84 85.1329 11.672C84.8569 11.492 84.5269 11.402 84.1429 11.402C83.7709 11.402 83.4409 11.492 83.1529 11.672C82.8649 11.84 82.6429 12.08 82.4869 12.392C82.3309 12.704 82.2529 13.076 82.2529 13.508V19.25H79.8949ZM96.2699 19.25V9.458H98.6279V19.25H96.2699ZM96.2699 8.36V5.84H98.6279V8.36H96.2699ZM105.195 19.466C104.187 19.466 103.305 19.238 102.549 18.782C101.793 18.326 101.205 17.708 100.785 16.928C100.365 16.148 100.155 15.284 100.155 14.336C100.155 13.352 100.365 12.482 100.785 11.726C101.217 10.958 101.799 10.352 102.531 9.908C103.275 9.464 104.103 9.242 105.015 9.242C105.783 9.242 106.455 9.368 107.031 9.62C107.619 9.872 108.117 10.22 108.525 10.664C108.933 11.108 109.245 11.618 109.461 12.194C109.677 12.758 109.785 13.37 109.785 14.03C109.785 14.198 109.773 14.372 109.749 14.552C109.737 14.732 109.707 14.888 109.659 15.02H102.099V13.22H108.327L107.211 14.066C107.319 13.514 107.289 13.022 107.121 12.59C106.965 12.158 106.701 11.816 106.329 11.564C105.969 11.312 105.531 11.186 105.015 11.186C104.523 11.186 104.085 11.312 103.701 11.564C103.317 11.804 103.023 12.164 102.819 12.644C102.627 13.112 102.555 13.682 102.603 14.354C102.555 14.954 102.633 15.488 102.837 15.956C103.053 16.412 103.365 16.766 103.773 17.018C104.193 17.27 104.673 17.396 105.213 17.396C105.753 17.396 106.209 17.282 106.581 17.054C106.965 16.826 107.265 16.52 107.481 16.136L109.389 17.072C109.197 17.54 108.897 17.954 108.489 18.314C108.081 18.674 107.595 18.956 107.031 19.16C106.479 19.364 105.867 19.466 105.195 19.466ZM111.301 19.25V9.458H113.515V11.384L113.335 11.042C113.563 10.454 113.935 10.01 114.451 9.71C114.979 9.398 115.591 9.242 116.287 9.242C117.007 9.242 117.643 9.398 118.195 9.71C118.759 10.022 119.197 10.46 119.509 11.024C119.821 11.576 119.977 12.218 119.977 12.95V19.25H117.619V13.508C117.619 13.076 117.535 12.704 117.367 12.392C117.199 12.08 116.965 11.84 116.665 11.672C116.377 11.492 116.035 11.402 115.639 11.402C115.255 11.402 114.913 11.492 114.613 11.672C114.313 11.84 114.079 12.08 113.911 12.392C113.743 12.704 113.659 13.076 113.659 13.508V19.25H111.301ZM126.171 19.358C125.067 19.358 124.209 19.058 123.597 18.458C122.997 17.846 122.697 16.988 122.697 15.884V11.564H121.005V9.458H121.185C121.665 9.458 122.037 9.332 122.301 9.08C122.565 8.828 122.697 8.462 122.697 7.982V7.226H125.055V9.458H127.305V11.564H125.055V15.758C125.055 16.082 125.109 16.358 125.217 16.586C125.337 16.814 125.517 16.988 125.757 17.108C126.009 17.228 126.327 17.288 126.711 17.288C126.795 17.288 126.891 17.282 126.999 17.27C127.119 17.258 127.233 17.246 127.341 17.234V19.25C127.173 19.274 126.981 19.298 126.765 19.322C126.549 19.346 126.351 19.358 126.171 19.358ZM131.802 19.466C131.118 19.466 130.524 19.352 130.02 19.124C129.516 18.896 129.126 18.572 128.85 18.152C128.574 17.72 128.436 17.222 128.436 16.658C128.436 16.118 128.556 15.638 128.796 15.218C129.036 14.786 129.408 14.426 129.912 14.138C130.416 13.85 131.052 13.646 131.82 13.526L135.024 13.004V14.804L132.27 15.272C131.802 15.356 131.454 15.506 131.226 15.722C130.998 15.938 130.884 16.22 130.884 16.568C130.884 16.904 131.01 17.174 131.262 17.378C131.526 17.57 131.85 17.666 132.234 17.666C132.726 17.666 133.158 17.564 133.53 17.36C133.914 17.144 134.208 16.85 134.412 16.478C134.628 16.106 134.736 15.698 134.736 15.254V12.734C134.736 12.314 134.568 11.966 134.232 11.69C133.908 11.402 133.476 11.258 132.936 11.258C132.432 11.258 131.982 11.396 131.586 11.672C131.202 11.936 130.92 12.29 130.74 12.734L128.814 11.798C129.006 11.282 129.306 10.838 129.714 10.466C130.134 10.082 130.626 9.782 131.19 9.566C131.754 9.35 132.366 9.242 133.026 9.242C133.83 9.242 134.538 9.392 135.15 9.692C135.762 9.98 136.236 10.388 136.572 10.916C136.92 11.432 137.094 12.038 137.094 12.734V19.25H134.862V17.576L135.366 17.54C135.114 17.96 134.814 18.314 134.466 18.602C134.118 18.878 133.722 19.094 133.278 19.25C132.834 19.394 132.342 19.466 131.802 19.466ZM146.496 19.466C145.548 19.466 144.702 19.244 143.958 18.8C143.214 18.344 142.626 17.726 142.194 16.946C141.762 16.166 141.546 15.302 141.546 14.354C141.546 13.394 141.762 12.53 142.194 11.762C142.626 10.994 143.214 10.382 143.958 9.926C144.714 9.47 145.554 9.242 146.478 9.242C147.222 9.242 147.882 9.392 148.458 9.692C149.046 9.98 149.508 10.388 149.844 10.916L149.484 11.402V5.624H151.842V19.25H149.61V17.36L149.862 17.828C149.526 18.356 149.058 18.764 148.458 19.052C147.858 19.328 147.204 19.466 146.496 19.466ZM146.748 17.306C147.288 17.306 147.762 17.18 148.17 16.928C148.578 16.676 148.896 16.328 149.124 15.884C149.364 15.44 149.484 14.93 149.484 14.354C149.484 13.79 149.364 13.286 149.124 12.842C148.896 12.386 148.578 12.032 148.17 11.78C147.762 11.528 147.288 11.402 146.748 11.402C146.22 11.402 145.746 11.534 145.326 11.798C144.906 12.05 144.576 12.398 144.336 12.842C144.108 13.274 143.994 13.778 143.994 14.354C143.994 14.93 144.108 15.44 144.336 15.884C144.576 16.328 144.906 16.676 145.326 16.928C145.746 17.18 146.22 17.306 146.748 17.306ZM158.414 19.466C157.406 19.466 156.524 19.238 155.768 18.782C155.012 18.326 154.424 17.708 154.004 16.928C153.584 16.148 153.374 15.284 153.374 14.336C153.374 13.352 153.584 12.482 154.004 11.726C154.436 10.958 155.018 10.352 155.75 9.908C156.494 9.464 157.322 9.242 158.234 9.242C159.002 9.242 159.674 9.368 160.25 9.62C160.838 9.872 161.336 10.22 161.744 10.664C162.152 11.108 162.464 11.618 162.68 12.194C162.896 12.758 163.004 13.37 163.004 14.03C163.004 14.198 162.992 14.372 162.968 14.552C162.956 14.732 162.926 14.888 162.878 15.02H155.318V13.22H161.546L160.43 14.066C160.538 13.514 160.508 13.022 160.34 12.59C160.184 12.158 159.92 11.816 159.548 11.564C159.188 11.312 158.75 11.186 158.234 11.186C157.742 11.186 157.304 11.312 156.92 11.564C156.536 11.804 156.242 12.164 156.038 12.644C155.846 13.112 155.774 13.682 155.822 14.354C155.774 14.954 155.852 15.488 156.056 15.956C156.272 16.412 156.584 16.766 156.992 17.018C157.412 17.27 157.892 17.396 158.432 17.396C158.972 17.396 159.428 17.282 159.8 17.054C160.184 16.826 160.484 16.52 160.7 16.136L162.608 17.072C162.416 17.54 162.116 17.954 161.708 18.314C161.3 18.674 160.814 18.956 160.25 19.16C159.698 19.364 159.086 19.466 158.414 19.466ZM173.955 19.466C172.995 19.466 172.107 19.292 171.291 18.944C170.487 18.596 169.779 18.11 169.167 17.486C168.567 16.862 168.099 16.13 167.763 15.29C167.427 14.45 167.259 13.532 167.259 12.536C167.259 11.54 167.421 10.622 167.745 9.782C168.081 8.93 168.549 8.198 169.149 7.586C169.761 6.962 170.475 6.482 171.291 6.146C172.107 5.798 172.995 5.624 173.955 5.624C174.915 5.624 175.773 5.786 176.529 6.11C177.297 6.434 177.945 6.866 178.473 7.406C179.001 7.934 179.379 8.516 179.607 9.152L177.411 10.178C177.159 9.506 176.733 8.954 176.133 8.522C175.533 8.078 174.807 7.856 173.955 7.856C173.115 7.856 172.371 8.054 171.723 8.45C171.087 8.846 170.589 9.392 170.229 10.088C169.881 10.784 169.707 11.6 169.707 12.536C169.707 13.472 169.881 14.294 170.229 15.002C170.589 15.698 171.087 16.244 171.723 16.64C172.371 17.036 173.115 17.234 173.955 17.234C174.807 17.234 175.533 17.018 176.133 16.586C176.733 16.142 177.159 15.584 177.411 14.912L179.607 15.938C179.379 16.574 179.001 17.162 178.473 17.702C177.945 18.23 177.297 18.656 176.529 18.98C175.773 19.304 174.915 19.466 173.955 19.466ZM181.129 19.25V5.624H183.487V19.25H181.129ZM188.381 19.466C187.697 19.466 187.103 19.352 186.599 19.124C186.095 18.896 185.705 18.572 185.429 18.152C185.153 17.72 185.015 17.222 185.015 16.658C185.015 16.118 185.135 15.638 185.375 15.218C185.615 14.786 185.987 14.426 186.491 14.138C186.995 13.85 187.631 13.646 188.399 13.526L191.603 13.004V14.804L188.849 15.272C188.381 15.356 188.033 15.506 187.805 15.722C187.577 15.938 187.463 16.22 187.463 16.568C187.463 16.904 187.589 17.174 187.841 17.378C188.105 17.57 188.429 17.666 188.812 17.666C189.305 17.666 189.737 17.564 190.109 17.36C190.493 17.144 190.787 16.85 190.991 16.478C191.207 16.106 191.315 15.698 191.315 15.254V12.734C191.315 12.314 191.147 11.966 190.811 11.69C190.487 11.402 190.055 11.258 189.515 11.258C189.011 11.258 188.561 11.396 188.165 11.672C187.781 11.936 187.499 12.29 187.319 12.734L185.393 11.798C185.585 11.282 185.885 10.838 186.293 10.466C186.713 10.082 187.205 9.782 187.769 9.566C188.333 9.35 188.945 9.242 189.604 9.242C190.409 9.242 191.117 9.392 191.729 9.692C192.341 9.98 192.815 10.388 193.151 10.916C193.499 11.432 193.673 12.038 193.673 12.734V19.25H191.441V17.576L191.945 17.54C191.693 17.96 191.393 18.314 191.045 18.602C190.697 18.878 190.301 19.094 189.857 19.25C189.413 19.394 188.921 19.466 188.381 19.466ZM199.308 19.466C198.264 19.466 197.352 19.22 196.572 18.728C195.804 18.224 195.276 17.546 194.988 16.694L196.752 15.848C197.004 16.4 197.352 16.832 197.796 17.144C198.252 17.456 198.756 17.612 199.308 17.612C199.74 17.612 200.082 17.516 200.334 17.324C200.586 17.132 200.712 16.88 200.712 16.568C200.712 16.376 200.658 16.22 200.55 16.1C200.454 15.968 200.316 15.86 200.136 15.776C199.968 15.68 199.782 15.602 199.578 15.542L197.976 15.092C197.148 14.852 196.518 14.486 196.086 13.994C195.666 13.502 195.456 12.92 195.456 12.248C195.456 11.648 195.606 11.126 195.906 10.682C196.218 10.226 196.644 9.872 197.184 9.62C197.736 9.368 198.366 9.242 199.074 9.242C199.998 9.242 200.814 9.464 201.522 9.908C202.23 10.352 202.734 10.976 203.034 11.78L201.234 12.626C201.066 12.182 200.784 11.828 200.388 11.564C199.992 11.3 199.548 11.168 199.056 11.168C198.66 11.168 198.348 11.258 198.12 11.438C197.892 11.618 197.778 11.852 197.778 12.14C197.778 12.32 197.826 12.476 197.922 12.608C198.018 12.74 198.15 12.848 198.318 12.932C198.498 13.016 198.702 13.094 198.93 13.166L200.496 13.634C201.3 13.874 201.918 14.234 202.35 14.714C202.794 15.194 203.016 15.782 203.016 16.478C203.016 17.066 202.86 17.588 202.548 18.044C202.236 18.488 201.804 18.836 201.252 19.088C200.7 19.34 200.052 19.466 199.308 19.466ZM209.211 19.466C208.203 19.466 207.321 19.238 206.565 18.782C205.809 18.326 205.221 17.708 204.801 16.928C204.381 16.148 204.171 15.284 204.171 14.336C204.171 13.352 204.381 12.482 204.801 11.726C205.233 10.958 205.815 10.352 206.547 9.908C207.291 9.464 208.119 9.242 209.031 9.242C209.799 9.242 210.471 9.368 211.047 9.62C211.635 9.872 212.133 10.22 212.541 10.664C212.949 11.108 213.261 11.618 213.477 12.194C213.693 12.758 213.801 13.37 213.801 14.03C213.801 14.198 213.789 14.372 213.765 14.552C213.753 14.732 213.723 14.888 213.675 15.02H206.115V13.22H212.343L211.227 14.066C211.335 13.514 211.305 13.022 211.137 12.59C210.981 12.158 210.717 11.816 210.345 11.564C209.985 11.312 209.547 11.186 209.031 11.186C208.539 11.186 208.101 11.312 207.717 11.564C207.333 11.804 207.039 12.164 206.835 12.644C206.643 13.112 206.571 13.682 206.619 14.354C206.571 14.954 206.649 15.488 206.853 15.956C207.069 16.412 207.381 16.766 207.789 17.018C208.209 17.27 208.689 17.396 209.229 17.396C209.769 17.396 210.225 17.282 210.597 17.054C210.981 16.826 211.281 16.52 211.497 16.136L213.405 17.072C213.213 17.54 212.913 17.954 212.505 18.314C212.097 18.674 211.611 18.956 211.047 19.16C210.495 19.364 209.883 19.466 209.211 19.466ZM219.043 19.466C217.999 19.466 217.087 19.22 216.307 18.728C215.539 18.224 215.011 17.546 214.723 16.694L216.487 15.848C216.739 16.4 217.087 16.832 217.531 17.144C217.987 17.456 218.491 17.612 219.043 17.612C219.475 17.612 219.817 17.516 220.069 17.324C220.321 17.132 220.447 16.88 220.447 16.568C220.447 16.376 220.393 16.22 220.285 16.1C220.189 15.968 220.051 15.86 219.871 15.776C219.703 15.68 219.517 15.602 219.313 15.542L217.711 15.092C216.883 14.852 216.253 14.486 215.821 13.994C215.401 13.502 215.191 12.92 215.191 12.248C215.191 11.648 215.341 11.126 215.641 10.682C215.953 10.226 216.379 9.872 216.919 9.62C217.471 9.368 218.101 9.242 218.809 9.242C219.733 9.242 220.549 9.464 221.257 9.908C221.965 10.352 222.469 10.976 222.769 11.78L220.969 12.626C220.801 12.182 220.519 11.828 220.123 11.564C219.727 11.3 219.283 11.168 218.791 11.168C218.395 11.168 218.083 11.258 217.855 11.438C217.627 11.618 217.513 11.852 217.513 12.14C217.513 12.32 217.561 12.476 217.657 12.608C217.753 12.74 217.885 12.848 218.053 12.932C218.233 13.016 218.437 13.094 218.665 13.166L220.231 13.634C221.035 13.874 221.653 14.234 222.085 14.714C222.529 15.194 222.751 15.782 222.751 16.478C222.751 17.066 222.595 17.588 222.283 18.044C221.971 18.488 221.539 18.836 220.987 19.088C220.435 19.34 219.787 19.466 219.043 19.466Z" fill="#1C170D"/>
<defs>
<clipPath id="clip0_1_7">
<rect width="16" height="16" fill="white" transform="translate(0 3.5)"/>
</clipPath>
</defs>
</svg>
